#!OML:ASF I:\salsa\salsa 7_09\Patient 1\Session 1\dancerfemale.ASF
:FULLY-SPECIFIED
:DEGREES
2415
root 0.57199 15.7314 7.49764 -894.73 791.001 558.143
lowerback 20.3187 -0.464429 8.27448
upperback -1.19762 1.41898 -0.376274
thorax -12.6386 0.0991466 -5.59689
lowerneck -6.65426 -3.9849 -9.28808
upperneck 11.34 -5.49014 10.4284
head 5.03083 -2.42552 4.43134
rclavicle -3.47873e-014 -3.57812e-015
rhumerus -50.2846 -15.5404 -84.9646
rradius 70.608
rwrist -7.3498
rhand -5.63792 69.9384
rfingers 7.12502
rthumb 20.1804 400.967
lclavicle -3.47873e-014 -3.57812e-015
lhumerus -48.6065 6.96442 88.9357
lradius 67.8153
lwrist -13.6494
lhand -17.1394 39.4007
lfingers 7.12502
lthumb 9.10081 789.184
rfemur 3.06141 -2.24664 34.4354
rtibia 17.7507
rfoot -11.8859 -11.7961
rtoes 2.21758
lfemur -70.5973 10.7177 -12.3563
ltibia 127.77
lfoot 36.2275 -2.60146
ltoes -24.2659
2416
root 0.56181 15.7127 7.47265 -893.9 791.575 558.268
lowerback 19.5012 -0.233762 8.35673
upperback -1.23951 1.6513 -0.456951
thorax -12.1737 0.219095 -5.77718
lowerneck -6.80958 -4.04128 -9.14898
upperneck 11.1298 -5.5479 10.2932
head 4.99178 -2.45666 4.35658
rclavicle 3.95085e-014 3.57812e-015
rhumerus -50.2414 -14.8069 -86.0976
rradius 70.9409
rwrist -6.12877
rhand -5.95956 71
rfingers 7.12502
rthumb 19.8712 401.996
lclavicle 3.95085e-014 3.57812e-015
lhumerus -49.9058 7.70777 88.2549
lradius 67.6666
lwrist -10.2624
lhand -13.6334 39.3904
lfingers 7.12502
lthumb 12.4826 788.998
rfemur 1.2202 -1.62197 34.3016
rtibia 20.0195
rfoot -13.0171 -11.7584
rtoes 1.89604
lfemur -68.6755 11.5252 -12.1823
ltibia 127.147
lfoot 35.6447 -1.94903
ltoes -26.4684
2417
root 0.546719 15.699 7.44619 -894.113 791.651 557.571
lowerback 19.0136 -0.201004 8.45832
upperback -1.27346 1.64278 -0.661597
thorax -11.9242 0.210457 -6.04759
lowerneck -6.90411 -4.1396 -9.41707
upperneck 10.8923 -5.67843 10.675
head 4.96711 -2.5102 4.51051
rclavicle -7.50412e-014 -5.96354e-015
rhumerus -50.3157 -14.2176 -87.2513
rradius 71.3851
rwrist -4.67855
rhand -6.4339 71.2141
rfingers 7.12502
rthumb 19.4152 402.163
lclavicle -7.50412e-014 -5.96354e-015
lhumerus -51.568 8.35935 87.4104
lradius 68.3093
lwrist -7.68076
lhand -11.9532 38.8819
lfingers 7.12502
lthumb 14.1021 788.383
rfemur -0.308129 -1.86977 33.841
rtibia 22.0764
rfoot -14.057 -11.4451
rtoes 1.40116
lfemur -65.9631 11.1383 -12.1813
ltibia 125.88
lfoot 35.2992 -0.70577
ltoes -27.4507
2418
root 0.529172 15.6822 7.42172 -894.139 791.862 556.778
lowerback 18.3135 -0.056339 8.43643
upperback -1.42599 1.73843 -0.855273
thorax -11.6726 0.254627 -6.2568
lowerneck -6.84655 -4.24341 -9.62218
upperneck 10.4955 -5.81085 10.945
head 4.8641 -2.57546 4.61932
rclavicle 2.06239e-014 -2.3059e-014
rhumerus -50.5633 -13.8001 -88.2893
rradius 72.0363
rwrist -3.33023
rhand -6.69052 71.3144
rfingers 7.12502
rthumb 19.1684 402.239
lclavicle 2.06239e-014 -2.3059e-014
lhumerus -53.5011 9.00501 86.4944
lradius 69.7142
lwrist -6.16873
lhand -10.1332 38.67
lfingers 7.12502
lthumb 15.8554 788.041
rfemur -2.16826 -2.53041 33.2732
rtibia 24.0936
rfoot -14.9352 -10.5106
rtoes 1.19974
lfemur -63.2097 10.7998 -12.0077
ltibia 124.438
lfoot 34.8515 1.51005
ltoes -25.3038
2419
root 0.513466 15.6683 7.39693 -894.87 792.264 555.125
lowerback 17.4032 0.226752 8.02699
upperback -1.54685 1.915 -1.06455
thorax -11.2549 0.371992 -6.26941
lowerneck -6.84441 -4.37418 -10.0806
upperneck 10.085 -5.9625 11.3566
head 4.78141 -2.65124 4.81351
rclavicle 3.75703e-014 3.18055e-015
rhumerus -50.7758 -13.4638 -89.2335
rradius 72.8681
rwrist -2.72397
rhand -6.67099 71.5142
rfingers 7.12502
rthumb 19.1872 402.441
lclavicle 3.75703e-014 3.18055e-015
lhumerus -55.2469 9.55408 85.6654
lradius 71.2845
lwrist -5.95681
lhand -8.75163 38.5341
lfingers 7.12502
lthumb 17.1855 787.794
rfemur -4.1728 -3.34539 32.3756
rtibia 26.1352
rfoot -15.8 -9.13666
rtoes 1.53951
lfemur -59.9778 10.2671 -11.9879
ltibia 122.672
lfoot 33.7693 4.78437
ltoes -20.372
